<svg width="100%" height="100%" viewBox="0 0 4400 4400" xmlns="http://www.w3.org/2000/svg">
  <path fill="#000" opacity="0.6" d="m1129.08719,2713.73593l-342.0039,35.82086l92.11078,191.04457c1.70576,3.41151 5.97014,5.97014 9.38165,5.11727l82.72912,-19.61618c10.23453,-2.55863 19.61618,-8.52878 25.58633,-17.05755l132.19602,-195.30896zm1930.91479,-476.75855c-152.66508,245.62874 -546.69451,682.30205 -665.24449,818.76245c-5.11727,6.82302 -11.94029,11.08741 -20.46906,13.64604l-136.46041,38.37949c-1.70576,0.85288 -4.26439,0.85288 -6.82302,-0.85288l-57.1428,-37.52661a2.55863,2.55863 0 0 1 0,-4.26439a1013.21854,1013.21854 0 0 1 46.05539,-17.05755l37.52661,3.41151s179.95716,-330.06361 181.66292,-595.30853l524.5197,-177.39853c34.96798,-13.64604 66.52445,-28.14496 96.37516,-41.791z"/>
  <path fill="#000" opacity="0.8" d="m2057.01797,2147.42523c97.22804,57.1428 163.75249,100.63955 191.04457,127.07876c417.05713,-112.57984 625.15925,-190.1917 700.21247,-245.62874a8.52878,8.52878 0 0 0 -3.41151,-14.49892c-98.9338,-23.88057 -198.72047,-48.61402 -301.06578,-75.05323c128.78451,-51.17265 229.42406,-104.90394 430.70317,-171.42839l394.02943,-132.19602s193.60321,-63.11294 264.39204,-39.23237c11.08741,3.41151 22.17482,5.97014 33.26222,5.97014c65.67157,5.11727 260.98053,21.32194 275.47945,64.81869c24.73345,69.93596 -195.30896,256.71614 -515.99092,371.85461l-301.91866,101.49243c-61.40718,43.49676 -147.54782,94.66941 -260.12765,138.16616l-634.5409,214.92514c-102.34531,36.67373 -181.66292,34.1151 -266.95068,39.23237l-228.57119,72.49459c-106.60969,34.1151 -250.746,59.70143 -412.79274,76.75898l-284.8611,30.70359c-179.10429,-5.97014 -40.08525,-63.96582 10.23453,-112.57984s46.90827,-142.43055 136.46041,-177.39853l774.41282,-275.47945z"/>
  <path fill="#000" d="m637.82972,2422.0518l-85.28776,-137.31329a8.52878,8.52878 0 0 1 4.26439,-11.94029l148.40069,-54.58416c9.38165,-3.41151 20.46906,-3.41151 29.85071,0l547.54739,204.69061c-89.55214,34.96798 -86.14063,128.78451 -136.46041,177.39853s-189.33882,106.60969 -10.23453,112.57984l-383.7949,40.93812l-8.52878,0.85288l-7.6759,0c-77.61186,0.85288 -83.582,-57.99567 -40.93812,-97.22804l3.41151,-3.41151l35.82086,25.58633c181.66292,-41.791 282.30247,-66.52445 364.17872,-134.75465a8.52878,8.52878 0 0 0 -5.97014,-15.3518c-84.43488,-3.41151 -239.65859,-51.17265 -454.58374,-107.46257z"/>
  <path fill="#000" opacity="0.6" d="m375.14343,2424.61043a8.52878,8.52878 0 0 1 2.55863,-14.49892l86.14063,-24.73345c7.6759,-2.55863 14.49892,-2.55863 22.17482,-0.85288c295.09563,70.78884 503.19776,140.7248 606.39594,144.98918a8.52878,8.52878 0 0 1 5.97014,15.3518c-81.87625,68.2302 -182.5158,92.96365 -364.17872,134.75465l-359.06145,-255.01039zm2573.13159,-395.73519a8.52878,8.52878 0 0 0 -3.41151,-14.49892c-544.98876,-132.19602 -1140.29729,-293.38988 -1904.47559,-553.51753c-6.82302,-2.55863 -14.49892,-3.41151 -21.32194,-1.70576c-34.96798,6.82302 -121.10861,-13.64604 -202.98486,-30.70359l-5.97014,0.85288l-47.76114,23.02769a1.70576,1.70576 0 0 0 0,3.41151l82.72912,57.99567l5.11727,3.41151c729.21031,365.03159 1300.63827,662.68586 1397.86632,757.35527c417.05713,-112.57984 625.15925,-190.1917 700.21247,-245.62874z"/>
  <path fill="#000" d="m1422.47707,1801.15694a1.70576,1.70576 0 0 1 -0.85288,-3.41151a4164609.64096,4164609.64096 0 0 0 285.71398,-104.05106l55.43704,-4.26439c28.99784,-4.26439 139.01904,-58.84855 177.39853,-48.61402c39.23237,11.94029 55.43704,86.99351 51.17265,120.25574c-6.82302,46.05539 -185.92731,86.14063 -313.00606,76.75898c-95.52229,-7.6759 -67.37733,-46.05539 -255.86327,-36.67373zm920.25488,1097.65342a1.70576,1.70576 0 0 1 -0.85288,-3.41151a2916574.29521,2916574.29521 0 0 1 267.80355,-97.22804c11.94029,-0.85288 37.52661,-1.70576 52.02553,-4.26439c27.29208,-3.41151 130.49027,-55.43704 166.31112,-45.20251c37.52661,11.08741 52.87841,81.87625 48.61402,113.43272c-6.82302,42.64388 -174.8399,80.17049 -294.24276,71.64171c-90.40502,-6.82302 -63.11294,-43.49676 -239.65859,-34.96798zm249.04025,-299.36002a1.70576,1.70576 0 0 1 -0.85288,-3.41151a2916574.29521,2916574.29521 0 0 1 267.80355,-97.22804c11.94029,-0.85288 38.37949,-1.70576 52.02553,-4.26439c27.29208,-3.41151 130.49027,-55.43704 166.31112,-45.20251c37.52661,11.08741 52.87841,81.87625 48.61402,113.43272c-5.97014,42.64388 -174.8399,80.17049 -294.24276,71.64171c-89.55214,-6.82302 -63.11294,-43.49676 -239.65859,-34.96798zm-504.05064,-617.48335a1.70576,1.70576 0 0 1 0,-3.41151a4164609.64096,4164609.64096 0 0 0 284.8611,-104.05106c12.79316,-0.85288 40.93812,-1.70576 55.43704,-4.26439c29.85071,-4.26439 139.01904,-58.84855 177.39853,-47.76114c40.08525,11.08741 56.28992,86.14063 51.17265,120.25574c-5.97014,46.05539 -185.92731,85.28776 -312.15319,75.9061c-96.37516,-7.6759 -67.37733,-46.05539 -256.71614,-36.67373z"/>
</svg>
